<mxfile host="app.diagrams.net" agent="Mozilla/5.0 (Macintosh; Intel Mac OS X 10_15_7) AppleWebKit/605.1.15 (KHTML, like Gecko) Version/18.1 Safari/605.1.15" version="26.0.3">
  <diagram name="Seite-1" id="PPa_s9wPXj0M3EQ-aR-X">
    <mxGraphModel dx="982" dy="590" grid="1" gridSize="10" guides="1" tooltips="1" connect="1" arrows="1" fold="1" page="1" pageScale="1" pageWidth="2339" pageHeight="3300" math="0" shadow="0">
      <root>
        <mxCell id="0" />
        <mxCell id="1" parent="0" />
        <mxCell id="Y04keu7PvzAEaYyiW48K-1" value="&lt;div&gt;&lt;font style=&quot;font-size: 14px;&quot;&gt;Perceived Usefulness&lt;/font&gt;&lt;/div&gt;&lt;div&gt;&lt;font style=&quot;font-size: 14px;&quot; color=&quot;#7ea6e0&quot;&gt;(wahrgenommener Nutzen)&lt;/font&gt;&lt;/div&gt;" style="rounded=0;whiteSpace=wrap;html=1;" vertex="1" parent="1">
          <mxGeometry x="530" y="295" width="170" height="60" as="geometry" />
        </mxCell>
        <mxCell id="Y04keu7PvzAEaYyiW48K-2" style="edgeStyle=orthogonalEdgeStyle;rounded=0;orthogonalLoop=1;jettySize=auto;html=1;entryX=0.5;entryY=1;entryDx=0;entryDy=0;" edge="1" parent="1" source="Y04keu7PvzAEaYyiW48K-3" target="Y04keu7PvzAEaYyiW48K-1">
          <mxGeometry relative="1" as="geometry" />
        </mxCell>
        <mxCell id="Y04keu7PvzAEaYyiW48K-3" value="&lt;div&gt;&lt;font style=&quot;font-size: 15px;&quot;&gt;Perceived Ease of Use&lt;/font&gt;&lt;/div&gt;&lt;font style=&quot;font-size: 15px;&quot; color=&quot;#7ea6e0&quot;&gt;&lt;/font&gt;&lt;div&gt;&lt;span style=&quot;caret-color: rgb(126, 166, 224); color: rgb(126, 166, 224);&quot;&gt;&lt;font style=&quot;font-size: 15px;&quot;&gt;(wahrgenommene Benutzerfreundlichkeit)&lt;/font&gt;&lt;/span&gt;&lt;br&gt;&lt;/div&gt;" style="rounded=0;whiteSpace=wrap;html=1;" vertex="1" parent="1">
          <mxGeometry x="530" y="425" width="170" height="60" as="geometry" />
        </mxCell>
        <mxCell id="Y04keu7PvzAEaYyiW48K-4" style="edgeStyle=orthogonalEdgeStyle;rounded=0;orthogonalLoop=1;jettySize=auto;html=1;entryX=0;entryY=0.5;entryDx=0;entryDy=0;" edge="1" parent="1" source="Y04keu7PvzAEaYyiW48K-5" target="Y04keu7PvzAEaYyiW48K-6">
          <mxGeometry relative="1" as="geometry" />
        </mxCell>
        <mxCell id="Y04keu7PvzAEaYyiW48K-5" value="&lt;div&gt;&lt;font style=&quot;font-size: 15px;&quot;&gt;Intention to Use&amp;nbsp;&lt;/font&gt;&lt;/div&gt;&lt;div&gt;&lt;span style=&quot;color: rgb(126, 166, 224);&quot;&gt;&lt;font style=&quot;font-size: 15px;&quot;&gt;(Intention zur Nutzung)&lt;/font&gt;&lt;/span&gt;&lt;br&gt;&lt;/div&gt;" style="rounded=0;whiteSpace=wrap;html=1;" vertex="1" parent="1">
          <mxGeometry x="750" y="365" width="120" height="60" as="geometry" />
        </mxCell>
        <mxCell id="Y04keu7PvzAEaYyiW48K-6" value="&lt;div&gt;&lt;font style=&quot;font-size: 15px;&quot;&gt;Usage Behavior&lt;/font&gt;&lt;/div&gt;&lt;div&gt;&lt;span style=&quot;color: rgb(126, 166, 224);&quot;&gt;&lt;font style=&quot;font-size: 15px;&quot;&gt;(Nutzungsverhalten)&lt;/font&gt;&lt;/span&gt;&lt;br&gt;&lt;/div&gt;" style="rounded=0;whiteSpace=wrap;html=1;" vertex="1" parent="1">
          <mxGeometry x="910" y="362.5" width="140" height="65" as="geometry" />
        </mxCell>
        <mxCell id="Y04keu7PvzAEaYyiW48K-7" value="" style="endArrow=classic;html=1;rounded=0;exitX=1;exitY=0.5;exitDx=0;exitDy=0;entryX=0.25;entryY=0;entryDx=0;entryDy=0;" edge="1" parent="1" source="Y04keu7PvzAEaYyiW48K-1" target="Y04keu7PvzAEaYyiW48K-5">
          <mxGeometry width="50" height="50" relative="1" as="geometry">
            <mxPoint x="450" y="375" as="sourcePoint" />
            <mxPoint x="540" y="335" as="targetPoint" />
          </mxGeometry>
        </mxCell>
        <mxCell id="Y04keu7PvzAEaYyiW48K-8" value="" style="endArrow=classic;html=1;rounded=0;exitX=1;exitY=0.5;exitDx=0;exitDy=0;entryX=0.25;entryY=1;entryDx=0;entryDy=0;" edge="1" parent="1" source="Y04keu7PvzAEaYyiW48K-3" target="Y04keu7PvzAEaYyiW48K-5">
          <mxGeometry width="50" height="50" relative="1" as="geometry">
            <mxPoint x="700" y="455" as="sourcePoint" />
            <mxPoint x="810" y="495" as="targetPoint" />
          </mxGeometry>
        </mxCell>
        <mxCell id="Y04keu7PvzAEaYyiW48K-9" value="" style="endArrow=none;html=1;rounded=0;" edge="1" parent="1">
          <mxGeometry width="50" height="50" relative="1" as="geometry">
            <mxPoint x="500" y="560" as="sourcePoint" />
            <mxPoint x="500" y="220" as="targetPoint" />
          </mxGeometry>
        </mxCell>
        <mxCell id="Y04keu7PvzAEaYyiW48K-10" value="" style="endArrow=none;html=1;rounded=0;" edge="1" parent="1">
          <mxGeometry width="50" height="50" relative="1" as="geometry">
            <mxPoint x="1060" y="560" as="sourcePoint" />
            <mxPoint x="1060" y="220" as="targetPoint" />
          </mxGeometry>
        </mxCell>
        <mxCell id="Y04keu7PvzAEaYyiW48K-11" value="" style="endArrow=none;html=1;rounded=0;" edge="1" parent="1">
          <mxGeometry width="50" height="50" relative="1" as="geometry">
            <mxPoint x="500" y="220" as="sourcePoint" />
            <mxPoint x="1060" y="220" as="targetPoint" />
          </mxGeometry>
        </mxCell>
        <mxCell id="Y04keu7PvzAEaYyiW48K-12" value="" style="endArrow=none;html=1;rounded=0;" edge="1" parent="1">
          <mxGeometry width="50" height="50" relative="1" as="geometry">
            <mxPoint x="1060" y="560" as="sourcePoint" />
            <mxPoint x="500" y="560" as="targetPoint" />
          </mxGeometry>
        </mxCell>
        <mxCell id="Y04keu7PvzAEaYyiW48K-13" style="edgeStyle=orthogonalEdgeStyle;rounded=0;orthogonalLoop=1;jettySize=auto;html=1;" edge="1" parent="1">
          <mxGeometry relative="1" as="geometry">
            <Array as="points">
              <mxPoint x="815" y="230" />
            </Array>
            <mxPoint x="415" y="230" as="sourcePoint" />
            <mxPoint x="815" y="360" as="targetPoint" />
          </mxGeometry>
        </mxCell>
        <mxCell id="Y04keu7PvzAEaYyiW48K-18" value="&lt;div&gt;&lt;font style=&quot;font-size: 15px;&quot;&gt;Experience&lt;/font&gt;&lt;/div&gt;&lt;div&gt;&lt;span style=&quot;color: rgb(126, 166, 224);&quot;&gt;&lt;font style=&quot;font-size: 15px;&quot;&gt;(Erfahrung)&lt;/font&gt;&lt;/span&gt;&lt;br&gt;&lt;/div&gt;" style="rounded=0;whiteSpace=wrap;html=1;" vertex="1" parent="1">
          <mxGeometry x="540" y="130" width="120" height="60" as="geometry" />
        </mxCell>
        <mxCell id="Y04keu7PvzAEaYyiW48K-19" value="&lt;div&gt;&lt;font style=&quot;font-size: 15px;&quot;&gt;Volutariness&lt;br&gt;&lt;/font&gt;&lt;/div&gt;&lt;div&gt;&lt;span style=&quot;color: rgb(126, 166, 224);&quot;&gt;&lt;font style=&quot;font-size: 15px;&quot;&gt;(Frewilligkeit der Nutzung)&lt;/font&gt;&lt;/span&gt;&lt;br&gt;&lt;/div&gt;" style="rounded=0;whiteSpace=wrap;html=1;" vertex="1" parent="1">
          <mxGeometry x="700" y="130" width="120" height="60" as="geometry" />
        </mxCell>
        <mxCell id="Y04keu7PvzAEaYyiW48K-23" value="" style="swimlane;startSize=0;fillColor=#dae8fc;strokeColor=#6C8EBF;strokeWidth=3;" vertex="1" parent="1">
          <mxGeometry x="280" y="180" width="180" height="340" as="geometry" />
        </mxCell>
        <mxCell id="Y04keu7PvzAEaYyiW48K-24" value="&lt;div&gt;&lt;font style=&quot;font-size: 14px;&quot;&gt;Image&lt;/font&gt;&lt;/div&gt;&lt;div&gt;&lt;span style=&quot;color: rgb(126, 166, 224);&quot;&gt;&lt;font style=&quot;font-size: 14px;&quot;&gt;(Image)&lt;/font&gt;&lt;/span&gt;&lt;br&gt;&lt;/div&gt;" style="rounded=0;whiteSpace=wrap;html=1;" vertex="1" parent="Y04keu7PvzAEaYyiW48K-23">
          <mxGeometry x="30" y="90" width="80" height="40" as="geometry" />
        </mxCell>
        <mxCell id="Y04keu7PvzAEaYyiW48K-25" value="&lt;div&gt;&lt;font style=&quot;font-size: 14px;&quot;&gt;Job Relevance&lt;/font&gt;&lt;/div&gt;&lt;div&gt;&lt;span style=&quot;color: rgb(126, 166, 224);&quot;&gt;&lt;font style=&quot;font-size: 14px;&quot;&gt;(Arbeitsrelevanz)&lt;/font&gt;&lt;/span&gt;&lt;br&gt;&lt;/div&gt;" style="rounded=0;whiteSpace=wrap;html=1;" vertex="1" parent="Y04keu7PvzAEaYyiW48K-23">
          <mxGeometry x="30" y="145" width="110" height="50" as="geometry" />
        </mxCell>
        <mxCell id="Y04keu7PvzAEaYyiW48K-26" value="&lt;div&gt;&lt;font style=&quot;font-size: 13px;&quot;&gt;Output Quality&lt;/font&gt;&lt;/div&gt;&lt;div&gt;&lt;span style=&quot;color: rgb(126, 166, 224);&quot;&gt;&lt;font style=&quot;font-size: 13px;&quot;&gt;(ErgebnisqualitÃ¤t)&lt;/font&gt;&lt;/span&gt;&lt;br&gt;&lt;/div&gt;" style="rounded=0;whiteSpace=wrap;html=1;" vertex="1" parent="Y04keu7PvzAEaYyiW48K-23">
          <mxGeometry x="30" y="210" width="110" height="50" as="geometry" />
        </mxCell>
        <mxCell id="Y04keu7PvzAEaYyiW48K-27" value="&lt;div&gt;&lt;font style=&quot;font-size: 13px;&quot;&gt;Result Demonstrability&lt;/font&gt;&lt;/div&gt;&lt;div&gt;&lt;span style=&quot;color: rgb(126, 166, 224);&quot;&gt;&lt;font style=&quot;font-size: 13px;&quot;&gt;(Sichtbarkeeit des Ergebnisses)&lt;/font&gt;&lt;/span&gt;&lt;br&gt;&lt;/div&gt;" style="rounded=0;whiteSpace=wrap;html=1;" vertex="1" parent="Y04keu7PvzAEaYyiW48K-23">
          <mxGeometry x="30" y="270" width="120" height="60" as="geometry" />
        </mxCell>
        <mxCell id="Y04keu7PvzAEaYyiW48K-28" value="&lt;div&gt;&lt;font style=&quot;font-size: 14px;&quot;&gt;Subjective Norm&lt;/font&gt;&lt;/div&gt;&lt;div&gt;&lt;font style=&quot;font-size: 14px;&quot; color=&quot;#7ea6e0&quot;&gt;(Subjektive Norm)&lt;/font&gt;&lt;/div&gt;" style="rounded=0;whiteSpace=wrap;html=1;" vertex="1" parent="Y04keu7PvzAEaYyiW48K-23">
          <mxGeometry x="30" y="10" width="100" height="60" as="geometry" />
        </mxCell>
        <mxCell id="Y04keu7PvzAEaYyiW48K-35" value="" style="swimlane;startSize=0;fillColor=#dae8fc;strokeColor=#6C8EBF;rotation=90;strokeWidth=3;" vertex="1" parent="1">
          <mxGeometry x="635" y="-5" width="90" height="320" as="geometry" />
        </mxCell>
        <mxCell id="Y04keu7PvzAEaYyiW48K-36" value="&lt;div&gt;&lt;font style=&quot;font-size: 16px;&quot;&gt;cognitive instrumental processes&lt;br&gt;&lt;/font&gt;&lt;/div&gt;&lt;div&gt;&lt;span style=&quot;color: rgb(126, 166, 224);&quot;&gt;&lt;font style=&quot;font-size: 16px;&quot;&gt;(Kognitive Faktoren)&lt;/font&gt;&lt;/span&gt;&lt;/div&gt;" style="text;html=1;align=center;verticalAlign=middle;whiteSpace=wrap;rounded=0;rotation=270;" vertex="1" parent="1">
          <mxGeometry x="140" y="303.75" width="210" height="92.5" as="geometry" />
        </mxCell>
        <mxCell id="Y04keu7PvzAEaYyiW48K-49" value="" style="endArrow=classic;html=1;rounded=0;exitX=1;exitY=0.75;exitDx=0;exitDy=0;entryX=0;entryY=0.083;entryDx=0;entryDy=0;entryPerimeter=0;" edge="1" parent="1" source="Y04keu7PvzAEaYyiW48K-28" target="Y04keu7PvzAEaYyiW48K-1">
          <mxGeometry width="50" height="50" relative="1" as="geometry">
            <mxPoint x="430" y="210" as="sourcePoint" />
            <mxPoint x="480" y="160" as="targetPoint" />
          </mxGeometry>
        </mxCell>
        <mxCell id="Y04keu7PvzAEaYyiW48K-58" value="" style="endArrow=classic;html=1;rounded=0;exitX=1;exitY=0.25;exitDx=0;exitDy=0;entryX=0;entryY=0.25;entryDx=0;entryDy=0;" edge="1" parent="1" source="Y04keu7PvzAEaYyiW48K-24" target="Y04keu7PvzAEaYyiW48K-1">
          <mxGeometry width="50" height="50" relative="1" as="geometry">
            <mxPoint x="600" y="420" as="sourcePoint" />
            <mxPoint x="528" y="315" as="targetPoint" />
          </mxGeometry>
        </mxCell>
        <mxCell id="Y04keu7PvzAEaYyiW48K-59" value="" style="endArrow=classic;html=1;rounded=0;exitX=1;exitY=0.5;exitDx=0;exitDy=0;entryX=0;entryY=0.5;entryDx=0;entryDy=0;" edge="1" parent="1" source="Y04keu7PvzAEaYyiW48K-25" target="Y04keu7PvzAEaYyiW48K-1">
          <mxGeometry width="50" height="50" relative="1" as="geometry">
            <mxPoint x="470" y="370" as="sourcePoint" />
            <mxPoint x="530" y="320" as="targetPoint" />
          </mxGeometry>
        </mxCell>
        <mxCell id="Y04keu7PvzAEaYyiW48K-60" value="" style="endArrow=classic;html=1;rounded=0;exitX=1;exitY=0.5;exitDx=0;exitDy=0;entryX=-0.006;entryY=0.689;entryDx=0;entryDy=0;entryPerimeter=0;" edge="1" parent="1" source="Y04keu7PvzAEaYyiW48K-26" target="Y04keu7PvzAEaYyiW48K-1">
          <mxGeometry width="50" height="50" relative="1" as="geometry">
            <mxPoint x="440" y="430" as="sourcePoint" />
            <mxPoint x="490" y="380" as="targetPoint" />
          </mxGeometry>
        </mxCell>
        <mxCell id="Y04keu7PvzAEaYyiW48K-61" value="" style="endArrow=classic;html=1;rounded=0;exitX=1;exitY=0.5;exitDx=0;exitDy=0;entryX=0;entryY=0.917;entryDx=0;entryDy=0;entryPerimeter=0;" edge="1" parent="1" source="Y04keu7PvzAEaYyiW48K-27" target="Y04keu7PvzAEaYyiW48K-1">
          <mxGeometry width="50" height="50" relative="1" as="geometry">
            <mxPoint x="440" y="490" as="sourcePoint" />
            <mxPoint x="490" y="440" as="targetPoint" />
          </mxGeometry>
        </mxCell>
      </root>
    </mxGraphModel>
  </diagram>
</mxfile>
